<svg width="24" height="25" viewBox="0 0 24 25" fill="none" xmlns="http://www.w3.org/2000/svg">
<path fill-rule="evenodd" clip-rule="evenodd" d="M17.9994 12.5009C17.9994 12.6999 17.9204 12.8906 17.7797 13.0313C17.6391 13.1719 17.4483 13.2509 17.2494 13.2509H8.55989L11.7804 16.4699C11.8501 16.5397 11.9054 16.6225 11.9432 16.7136C11.9809 16.8047 12.0003 16.9023 12.0003 17.0009C12.0003 17.0996 11.9809 17.1972 11.9432 17.2883C11.9054 17.3794 11.8501 17.4622 11.7804 17.5319C11.7107 17.6017 11.6279 17.657 11.5368 17.6947C11.4457 17.7325 11.348 17.7519 11.2494 17.7519C11.1508 17.7519 11.0531 17.7325 10.962 17.6947C10.8709 17.657 10.7881 17.6017 10.7184 17.5319L6.21839 13.0319C6.14854 12.9623 6.09313 12.8795 6.05532 12.7884C6.01751 12.6973 5.99805 12.5996 5.99805 12.5009C5.99805 12.4023 6.01751 12.3046 6.05532 12.2135C6.09313 12.1224 6.14854 12.0396 6.21839 11.9699L10.7184 7.46995C10.8592 7.32912 11.0502 7.25 11.2494 7.25C11.4486 7.25 11.6396 7.32912 11.7804 7.46995C11.9212 7.61078 12.0003 7.80178 12.0003 8.00095C12.0003 8.20011 11.9212 8.39112 11.7804 8.53195L8.55989 11.7509H17.2494C17.4483 11.7509 17.6391 11.83 17.7797 11.9706C17.9204 12.1113 17.9994 12.302 17.9994 12.5009Z" fill="#17462B"/>
</svg>
